<?xml version="1.0" encoding="UTF-8"?>
<svg width="129px" height="30px" viewBox="0 0 129 30" version="1.1" xmlns="http://www.w3.org/2000/svg" xmlns:xlink="http://www.w3.org/1999/xlink">
    <title>logo</title>
    <g id="行情" stroke="none" stroke-width="1" fill="none" fill-rule="evenodd">
        <g transform="translate(-40.000000, -64.000000)" fill="#FFFFFF" id="logo">
            <g transform="translate(40.000000, 64.000000)">
                <path d="M14.9092228,19.7065803 L9.29720207,14.0945596 L14.9092228,8.48253886 L20.5212435,14.0945596 L14.9092228,19.7065803 Z M29.8184456,14.9092228 C29.8184456,6.67507772 23.1433679,0 14.9092228,0 C6.67507772,0 0,6.67507772 0,14.9092228 C0,21.7705181 4.6353886,27.5485492 10.9453368,29.2846632 C8.82917098,19.0529534 3.33963731,14.0619171 3.33963731,14.0619171 L7.38326425,14.0619171 L14.9092228,22.1825907 L22.4351813,14.0619171 L26.4789637,14.0619171 C26.4789637,14.0619171 20.9892746,19.0529534 18.8731088,29.2846632 C25.183057,27.5485492 29.8184456,21.7705181 29.8184456,14.9092228 L29.8184456,14.9092228 Z" id="Fill-19"></path>
                <polygon id="Fill-21" points="34.9103472 9.33146114 36.7795181 9.33146114 40.9392591 16.0359171 45.0334041 9.33146114 46.912057 9.33146114 41.7621606 17.8188187 41.7621606 25.587886 40.1597254 25.587886 40.1597254 17.8188187"></polygon>
                <path d="M52.101544,14.7686891 C50.8151192,14.7686891 49.7096269,15.2438705 48.7855337,16.1942332 C47.861285,17.1445959 47.3991606,18.2940777 47.3991606,19.6423679 C47.3991606,20.5117461 47.6099378,21.322057 48.0313368,22.0736114 C48.4527358,22.8250104 49.0219585,23.4052694 49.7393161,23.8140777 C50.4565181,24.2230415 51.2438238,24.427601 52.101544,24.427601 C52.9591088,24.427601 53.7464145,24.2230415 54.463772,23.8140777 C55.1809741,23.4052694 55.7501969,22.8250104 56.1717513,22.0736114 C56.5929948,21.322057 56.803772,20.5117461 56.803772,19.6423679 C56.803772,18.2940777 56.3399378,17.1445959 55.4119585,16.1942332 C54.4839793,15.2438705 53.3805078,14.7686891 52.101544,14.7686891 M52.1071399,13.2546995 C53.9595233,13.2546995 55.4946528,13.925114 56.7125285,15.265943 C57.8195751,16.4889482 58.3730984,17.9367202 58.3730984,19.6092591 C58.3730984,21.2889482 57.7880207,22.7570829 56.618487,24.0131969 C55.448487,25.2693109 53.944601,25.8972902 52.1071399,25.8972902 C50.2619067,25.8972902 48.7542902,25.2693109 47.584601,24.0131969 C46.4147565,22.7570829 45.8298342,21.2889482 45.8298342,19.6092591 C45.8298342,17.9441813 46.3833575,16.5001399 47.4905596,15.2771347 C48.7082798,13.9288446 50.2471399,13.2546995 52.1071399,13.2546995" id="Fill-23"></path>
                <path d="M60.1312383,13.5640259 L61.6783368,13.5640259 L61.6783368,19.1780674 C61.6783368,20.5485855 61.752171,21.4916425 61.8996839,22.0072383 C62.1211865,22.7441813 62.5435181,23.3261503 63.1669896,23.753456 C63.7904611,24.1807617 64.5337772,24.3943368 65.3970933,24.3943368 C66.2604093,24.3943368 66.9926891,24.1863575 67.5940881,23.7699326 C68.1953316,23.3536632 68.610513,22.8068238 68.8393212,22.1289482 C68.9941399,21.6646477 69.0717047,20.6810207 69.0717047,19.1780674 L69.0717047,13.5640259 L70.6520674,13.5640259 L70.6520674,19.4654767 C70.6520674,21.1232487 70.458544,22.3719016 70.0718083,23.2117461 C69.6850725,24.0517461 69.1029482,24.7092591 68.3257461,25.1845959 C67.5483886,25.6596218 66.5740881,25.8972902 65.4026891,25.8972902 C64.2311347,25.8972902 63.2531036,25.6596218 62.4685959,25.1845959 C61.6839326,24.7092591 61.0982332,24.0463057 60.711342,23.1952694 C60.3246062,22.3442332 60.1312383,21.0643368 60.1312383,19.3549585 L60.1312383,13.5640259 Z" id="Fill-25"></path>
                <path d="M71.7579948,22.559829 L73.1393938,21.7310207 C74.1119845,23.5213834 75.2353523,24.4164093 76.5101192,24.4164093 C77.0552487,24.4164093 77.5672694,24.2894145 78.0461813,24.035114 C78.5250933,23.7809689 78.8897565,23.4402435 79.1403264,23.0129378 C79.3907409,22.5857876 79.5160259,22.1326788 79.5160259,21.6536114 C79.5160259,21.1084819 79.331829,20.5743886 78.9634352,20.0511762 C78.4551451,19.3293109 77.5268549,18.4597772 76.1785648,17.4430415 C74.8228135,16.4191554 73.9793938,15.6786373 73.6478394,15.2217979 C73.0730207,14.4554767 72.7857668,13.6266684 72.7857668,12.7352176 C72.7857668,12.0279637 72.9551969,11.3833523 73.2942124,10.8013834 C73.6329171,10.2192591 74.1099637,9.76070984 74.7253523,9.42542487 C75.3402746,9.09029534 76.0089793,8.92257513 76.7311554,8.92257513 C77.4973212,8.92257513 78.2137461,9.11221244 78.8805855,9.49164249 C79.5472694,9.87122798 80.252658,10.5691554 80.9969067,11.5858912 L79.6706891,12.5915907 C79.0591865,11.7811244 78.5379948,11.2471865 78.1069585,10.9891554 C77.6759223,10.7312798 77.2063368,10.6022642 76.6978912,10.6022642 C76.0420881,10.6022642 75.5061295,10.8013834 75.0900155,11.199 C74.6735907,11.5969275 74.4656114,12.0870311 74.4656114,12.6688446 C74.4656114,13.0226269 74.5391347,13.3652176 74.6866477,13.6966166 C74.8340052,14.028171 75.1027617,14.3894145 75.4933834,14.7797254 C75.7069585,14.9859948 76.4067513,15.5275492 77.5930725,16.4042332 C79.0002746,17.4430415 79.9654041,18.3677565 80.4886166,19.1780674 C81.0115181,19.9886891 81.2731244,20.8025751 81.2731244,21.6205026 C81.2731244,22.7993627 80.8256114,23.8235596 79.9304301,24.6927824 C79.0352487,25.5621606 77.9466995,25.996772 76.6647824,25.996772 C75.6774249,25.996772 74.7822435,25.7333005 73.9793938,25.206513 C73.1762332,24.6800363 72.435715,23.797601 71.7579948,22.559829" id="Fill-27"></path>
                <polygon id="Fill-29" points="81.9260518 13.5640259 83.5174508 13.5640259 87.2030984 22.2946477 91.0393679 13.5640259 91.3199378 13.5640259 95.1821658 22.2946477 98.9386943 13.5640259 100.547503 13.5640259 95.3242383 25.5879637 95.0372953 25.5879637 91.1926321 16.9788964 87.3499896 25.5879637 87.062114 25.5879637"></polygon>
                <path d="M107.25101,14.7465233 C106.390181,14.7465233 105.595415,14.9582332 104.86671,15.381342 C104.138161,15.8046062 103.558523,16.3988549 103.128109,17.1642435 C102.697539,17.9296321 102.482409,18.7390104 102.482409,19.5925337 C102.482409,20.4390622 102.69956,21.2484404 103.133705,22.0211347 C103.567694,22.793829 104.151062,23.3955389 104.883187,23.8257979 C105.615311,24.2566788 106.400907,24.4716528 107.24013,24.4716528 C108.086347,24.4716528 108.88842,24.2582332 109.646503,23.8313938 C110.404275,23.4045544 110.987487,22.8269378 111.395984,22.0983886 C111.804326,21.3698394 112.008575,20.5494249 112.008575,19.6368342 C112.008575,18.2461088 111.550492,17.0832591 110.634326,16.1485959 C109.718161,15.2140881 108.590285,14.7465233 107.25101,14.7465233 L107.25101,14.7465233 Z M113.434275,13.5640881 L113.434275,25.5878705 L111.909249,25.5878705 L111.909249,23.5212902 C111.260751,24.3096839 110.53329,24.9026891 109.726554,25.3004611 C108.919819,25.6983886 108.037539,25.8971969 107.079715,25.8971969 C105.377798,25.8971969 103.924741,25.2804093 102.720078,24.0462124 C101.51557,22.8123264 100.913238,21.3109275 100.913238,19.5427927 C100.913238,17.8116528 101.52101,16.3306166 102.736554,15.1001503 C103.952254,13.8698394 105.414793,13.2546062 107.124016,13.2546062 C108.111218,13.2546062 109.004378,13.4646062 109.803964,13.8846062 C110.603238,14.3044508 111.305052,14.9344508 111.909249,15.7742953 L111.909249,13.5640881 L113.434275,13.5640881 Z" id="Fill-31"></path>
                <path d="M122.221026,14.7465233 C120.88315,14.7465233 119.756674,15.2140881 118.841596,16.1485959 C117.926363,17.0832591 117.468902,18.2461088 117.468902,19.6368342 C117.468902,20.5494249 117.672839,21.3698394 118.08087,22.0983886 C118.488746,22.8269378 119.073047,23.4045544 119.833927,23.8313938 C120.594653,24.2582332 121.397658,24.4716528 122.243098,24.4716528 C123.073617,24.4716528 123.854549,24.2566788 124.585896,23.8257979 C125.317399,23.3955389 125.899834,22.793829 126.333668,22.0211347 C126.767192,21.2484404 126.984187,20.4390622 126.984187,19.5925337 C126.984187,18.7390104 126.768902,17.9296321 126.338953,17.1642435 C125.909005,16.3988549 125.330145,15.8046062 124.602528,15.381342 C123.874912,14.9582332 123.080922,14.7465233 122.221026,14.7465233 L122.221026,14.7465233 Z M116.032321,13.5640881 L117.57942,13.5640881 L117.57942,15.7742953 C118.190301,14.9344508 118.893202,14.3044508 119.688124,13.8846062 C120.482891,13.4646062 121.369834,13.2546062 122.348642,13.2546062 C124.056155,13.2546062 125.51714,13.8698394 126.731751,15.1001503 C127.946052,16.3306166 128.553358,17.8116528 128.553358,19.5427927 C128.553358,21.3109275 127.951492,22.8123264 126.748228,24.0462124 C125.544808,25.2804093 124.09315,25.8971969 122.392943,25.8971969 C121.435896,25.8971969 120.55657,25.6983886 119.754342,25.3004611 C118.952114,24.9026891 118.226984,24.3096839 117.57942,23.5212902 L117.57942,29.9863679 L116.032321,29.9863679 L116.032321,13.5640881 Z" id="Fill-33"></path>
            </g>
        </g>
    </g>
</svg>